# xmcd CD database file
#
# Track frame offsets:
#	150
#	7932
#	42650
#	52041
#	60506
#	87551
#	114777
#	129713
#	175647
#	216052
#	221866
#
# Disc length: 3198 seconds
#
# Revision: 0
# Processed by: cddbd v1.5.1PL0 Copyright (c) Steve Scherf et al.
# Submitted via: CDex 1.51
#
DISCID=9a0c7c0b
DTITLE=Kato Hideki - Green Zone
DYEAR=2005
DGENRE=Jazz
TTITLE0=Gates of Hell
TTITLE1=Bremer Walls
TTITLE2=Agent Orange
TTITLE3=Oil and Water
TTITLE4=Crave
TTITLE5=Enemy Within
TTITLE6=Copper Green
TTITLE7=Curtains of Grief
TTITLE8=Agent Orange 2
TTITLE9=Hope Against Hope
TTITLE10=Okinawa
EXTD=YEAR: 2005
EXTT0=
EXTT1=
EXTT2=
EXTT3=
EXTT4=
EXTT5=
EXTT6=
EXTT7=
EXTT8=
EXTT9=
EXTT10=
PLAYORDER=
